<svg width="70" height="70" fill="none" xmlns="http://www.w3.org/2000/svg"><path d="M5.894 44.545l2.333-7a1.167 1.167 0 011.106-.798h5.834c.644 0 1.166.522 1.166 1.166v5.834c0 .58-.426 1.072-1 1.155l-8.167 1.166a1.167 1.167 0 01-1.272-1.524zM14 42.735V39.08h-3.825l-1.472 4.411L14 42.735z" fill="#2D2D2D"/><path d="M2.333 21.58c-.502 0-.947-.322-1.106-.798l-1.166-3.5A1.165 1.165 0 010 16.913v-4.666c0-.645.522-1.167 1.167-1.167h52.28a6.994 6.994 0 0113.053 3.5v26.833h2.333c.645 0 1.167.523 1.167 1.167v14c0 .644-.522 1.167-1.167 1.167h-1.166v2.333h1.166v2.333h-4.666V60.08h1.166v-2.333H60.55a5.833 5.833 0 110-2.334H63v-7H37.816L35 51.23v4.183h2.45a5.833 5.833 0 110 2.334H23.333v2.333H24.5v2.333h-4.667V60.08H21v-2.333h-4.783a5.833 5.833 0 01-11.434 0H1.167A1.167 1.167 0 010 56.58V44.913c0-.148.028-.296.083-.434L4.75 32.813a1.167 1.167 0 011.083-.733h14c.645 0 1.167.522 1.167 1.167v8.166h19.833v-7.158a6.85 6.85 0 016.842-6.842H52.5v-1.506L30.135 18.08H9.007l-.901 2.702A1.167 1.167 0 017 21.58H5.833v2.333c0 .645-.522 1.167-1.166 1.167a1.167 1.167 0 101.166 1.167h2.334A3.5 3.5 0 113.5 22.946V21.58H2.333zm52.5 31.5a3.5 3.5 0 100 7 3.5 3.5 0 000-7zm-11.666 7a3.5 3.5 0 100-7 3.5 3.5 0 000 7zm-32.667 0a3.5 3.5 0 100-7 3.5 3.5 0 000 7zm8.167-25.667H6.623l-4.29 10.724v4.443h2.334v2.333H2.333v3.5h2.45a5.833 5.833 0 0111.434 0h2.45v-21zm45.5-19.833a4.667 4.667 0 10-9.334 0v26.833h9.334V14.58zm1.166 40.833h2.334v-7h-2.334v7zm-44.333 0h2.333v-7H21v7zm0-11.666v2.333h3.5c.644 0 1.167.522 1.167 1.167v8.166h7v-4.666c0-.31.123-.606.341-.825l3.5-3.5c.22-.219.516-.342.825-.342h30.334v-2.333H21zm26.833-14h-.158a4.513 4.513 0 00-4.508 4.508v1.325h4.666v-5.833zm2.334 0v7c0 .644-.523 1.166-1.167 1.166h-5.833v3.5H52.5V29.747h-2.333zm2.333-6.31V18.08H37.198L52.5 23.436zm-36.167-7.69H52.5v-2.334H16.333v2.334zm-7 0H14v-2.334H9.333v2.334zm-3.174 3.5L7 16.724v-3.31H2.333v3.31l.841 2.523H6.16z" fill="#2D2D2D"/></svg>