<svg width="70" height="70" fill="none" xmlns="http://www.w3.org/2000/svg"><path d="M51.776 45.352l-2.741-.587-.01-.004-6.575-1.406c.044-.322.067-.647.07-.972v-3.054a13.955 13.955 0 006.442-11.75V25.09h1.502a.955.955 0 00.957-.957v-3.282a.955.955 0 00-.957-.957h-.69A14.74 14.74 0 0038.417 5.727V3.555a.96.96 0 00-.957-.957h-4.922a.957.957 0 00-.957.957v2.172a14.74 14.74 0 00-11.355 14.168h-.691a.955.955 0 00-.957.957v3.282a.955.955 0 00.957.957h1.502v2.488a13.954 13.954 0 006.442 11.75v3.054c.003.325.026.65.07.972l-6.575 1.406h-.007l-2.743.587a7.556 7.556 0 00-5.953 7.354v13.743a.957.957 0 00.957.957H56.77a.957.957 0 00.957-.957V52.702a7.555 7.555 0 00-5.952-7.35zM47.86 19.895h-4.52V14.29a.957.957 0 10-1.913 0v5.605h-3.008V7.687a12.839 12.839 0 019.441 12.208zM33.496 4.512h3.008v15.383h-3.008V4.512zm-1.914 3.176v12.207h-3.008V14.29a.957.957 0 10-1.914 0v5.605h-4.52a12.838 12.838 0 019.442-12.207zM20.493 21.809h29.014v1.368H20.493v-1.368zm2.461 5.77V25.09h24.094v2.488a12.048 12.048 0 01-24.096 0h.002zM35 41.535c1.93.002 3.839-.398 5.605-1.176v2.024a5.606 5.606 0 01-11.21 0v-2.024A13.889 13.889 0 0035 41.535zM14.186 52.702a5.633 5.633 0 014.439-5.479l1.593-.341v18.606h-6.032V52.702zm7.946-6.23l5.906-1.264a7.531 7.531 0 006.007 4.627v15.653H22.132V46.472zm13.825 19.016V49.834a7.532 7.532 0 006.007-4.626l5.906 1.264v19.016H35.957zm19.857 0h-6.032V46.883l1.594.34a5.634 5.634 0 014.438 5.48v12.785z" fill="#2D2D2D"/><path d="M53.49 55.813a.955.955 0 00-.957.957v3.42a.957.957 0 101.914 0v-3.42a.957.957 0 00-.957-.957zm-22.942-2.176h-4.921a.957.957 0 100 1.914h4.921a.957.957 0 000-1.914z" fill="#2D2D2D"/></svg>