<svg width="70" height="70" fill="none" xmlns="http://www.w3.org/2000/svg"><g clip-path="url(#clip0)" fill="#2D2D2D"><path d="M.221 6.421l4.669 8.17c.157.276.42.475.73.553l4.355 1.089L24.913 31.17l1.65-1.65-15.172-15.172a1.164 1.164 0 00-.541-.307l-4.185-1.05-3.975-6.96 3.408-3.407 6.962 3.978 1.05 4.185c.051.206.158.393.307.543L29.59 26.503l1.65-1.65-14.939-14.94-1.089-4.353a1.169 1.169 0 00-.553-.73L6.49.161a1.167 1.167 0 00-1.4.188L.421 5.018c-.375.37-.457.944-.2 1.403zM48.742 23L23.067 48.677l-1.65-1.65L47.092 21.35l1.65 1.65zM18.573 49.585a1.167 1.167 0 00-1-.566H10.57c-.41 0-.79.214-1 .566L6.069 55.42c-.222.37-.222.832 0 1.202l3.502 5.835c.21.35.59.566 1 .566h7.002c.41 0 .79-.215 1-.566l3.501-5.835c.223-.37.223-.833 0-1.202l-3.5-5.835zm-1.66 11.104H11.23l-2.8-4.668 2.8-4.669h5.682l2.8 4.669-2.8 4.668z"/><path d="M56.086 28.012c7.708.025 13.978-6.202 14.004-13.91a13.96 13.96 0 00-.43-3.48 1.167 1.167 0 00-1.956-.543l-7.265 7.26-5.764-1.921-1.922-5.763 7.265-7.266A1.167 1.167 0 0059.47.43c-7.475-1.893-15.069 2.631-16.962 10.106a13.929 13.929 0 00-.427 3.47c.003.919.098 1.835.284 2.734L16.806 42.3c-.9-.186-1.816-.28-2.734-.284-7.735 0-14.005 6.27-14.005 14.005 0 7.734 6.27 14.004 14.005 14.004 7.734 0 14.004-6.27 14.004-14.004a13.735 13.735 0 00-.283-2.735l6.118-6.119 2.676 2.676a1.168 1.168 0 001.651 0l.583-.584a1.313 1.313 0 011.851 0 1.31 1.31 0 01.003 1.85s-.002 0-.003.002l-.583.583a1.167 1.167 0 000 1.65L54.01 67.266a9.42 9.42 0 1013.38-13.26l-.06-.06-13.92-13.923a1.167 1.167 0 00-1.65 0l-.583.583a1.313 1.313 0 01-1.851 0 1.307 1.307 0 01-.003-1.848l.003-.002.584-.584a1.167 1.167 0 000-1.65l-2.676-2.676 6.118-6.12c.9.187 1.816.282 2.735.285zm4.585 39.68a7.092 7.092 0 01-2.482-.453l9.114-9.116a7.077 7.077 0 01-6.632 9.568zM47.45 37.358a3.642 3.642 0 005.134 5.128l13.097 13.109c.142.142.275.293.404.445l-9.978 9.979a6.812 6.812 0 01-.446-.404L42.554 52.508a3.642 3.642 0 00-5.136-5.129l-1.867-1.867 10.031-10.015 1.868 1.862zm4.712-11.737l-26.475 26.47c-.29.29-.407.71-.308 1.108 1.601 6.288-2.198 12.683-8.486 14.284-6.288 1.601-12.684-2.198-14.285-8.487-1.6-6.288 2.2-12.683 8.487-14.284a11.757 11.757 0 015.798 0 1.18 1.18 0 001.109-.308l26.468-26.47c.29-.29.407-.71.307-1.108-1.59-6.215 2.158-12.541 8.373-14.132a11.62 11.62 0 013.599-.34l-6.157 6.159a1.166 1.166 0 00-.282 1.193l2.334 7.003c.116.348.39.622.739.738l7.002 2.334c.419.14.881.03 1.194-.282l6.156-6.156c.014.223.021.443.021.663.033 6.412-5.139 11.637-11.551 11.67-.992.005-1.98-.117-2.94-.363a1.169 1.169 0 00-1.109.307h.006z"/><path d="M60.413 58.697l-1.65 1.65-11.67-11.67 1.65-1.65 11.67 11.67z"/></g><defs><clipPath id="clip0"><path fill="#fff" d="M0 0h70v70H0z"/></clipPath></defs></svg>