<svg width="70" height="69" fill="none" xmlns="http://www.w3.org/2000/svg"><g clip-path="url(#clip0)" fill="#2D2D2D"><path d="M35 68.926c-19.3 0-35-15.46-35-34.463S15.7 0 35 0s35 15.46 35 34.463c0 19.004-15.7 34.463-35 34.463zm0-66.054c-17.69 0-32.083 14.173-32.083 31.591C2.917 51.882 17.31 66.055 35 66.055c17.69 0 32.083-14.174 32.083-31.592S52.69 2.872 35 2.872z"/><path d="M51.042 51.695c-.373 0-.747-.14-1.033-.42L33.968 35.48a1.435 1.435 0 01-.426-1.017v-21.54c0-.792.653-1.435 1.458-1.435.805 0 1.459.643 1.459 1.436v20.945l15.615 15.376c.57.56.57 1.47 0 2.03a1.47 1.47 0 01-1.032.42z"/></g><defs><clipPath id="clip0"><path fill="#fff" d="M0 0h70v68.926H0z"/></clipPath></defs></svg>