<svg width="21" height="22" fill="none" xmlns="http://www.w3.org/2000/svg"><g clip-path="url(#clip0)" fill="#FCD127"><path d="M10.5.5C6.222.5 2.742 3.98 2.742 8.258c0 1.408.632 2.922.659 2.986.203.484.606 1.236.896 1.677l5.32 8.06c.217.33.539.519.883.519s.666-.19.884-.52l5.32-8.059c.29-.44.692-1.193.896-1.677.026-.063.657-1.578.657-2.986C18.258 3.98 14.777.5 10.5.5zm6.259 10.39a11.472 11.472 0 01-.818 1.529l-5.32 8.06c-.104.159-.137.159-.242 0l-5.32-8.06a11.473 11.473 0 01-.817-1.53c-.008-.018-.587-1.412-.587-2.631A6.853 6.853 0 0110.5 1.413a6.853 6.853 0 016.845 6.845c0 1.22-.58 2.618-.586 2.632z"/><path d="M10.5 4.151a4.112 4.112 0 00-4.107 4.107 4.112 4.112 0 004.107 4.107 4.112 4.112 0 004.107-4.107A4.112 4.112 0 0010.5 4.151zm0 7.302a3.198 3.198 0 01-3.194-3.195A3.198 3.198 0 0110.5 5.064a3.198 3.198 0 013.194 3.194 3.198 3.198 0 01-3.194 3.195z"/></g><defs><clipPath id="clip0"><path fill="#fff" transform="translate(0 .5)" d="M0 0h21v21H0z"/></clipPath></defs></svg>