<svg width="21" height="21" fill="none" xmlns="http://www.w3.org/2000/svg"><path d="M16.597 13.009c-.43-.448-.949-.687-1.499-.687-.545 0-1.068.235-1.515.683l-1.4 1.396c-.116-.062-.231-.12-.342-.178-.16-.08-.31-.155-.439-.235-1.312-.833-2.504-1.919-3.648-3.324-.554-.7-.926-1.29-1.196-1.888.363-.332.7-.678 1.028-1.01.124-.124.248-.253.372-.377.931-.93.931-2.136 0-3.067l-1.21-1.21c-.137-.138-.279-.28-.412-.421a20.93 20.93 0 00-.833-.825c-.43-.425-.944-.651-1.485-.651-.54 0-1.064.226-1.507.651l-.009.01-1.507 1.52a3.243 3.243 0 00-.962 2.06c-.106 1.295.275 2.5.568 3.29.718 1.936 1.79 3.731 3.39 5.655 1.942 2.318 4.278 4.148 6.946 5.438 1.02.483 2.38 1.055 3.9 1.152.093.005.19.01.28.01 1.023 0 1.883-.369 2.557-1.1.004-.009.013-.013.017-.022.23-.28.497-.532.776-.802.19-.182.386-.373.576-.572.439-.457.67-.988.67-1.534 0-.55-.236-1.077-.683-1.52l-2.433-2.442zm1.586 4.667c-.004 0-.004.004 0 0-.172.186-.35.355-.54.54a11.87 11.87 0 00-.856.887c-.447.479-.975.705-1.666.705-.067 0-.138 0-.204-.005-1.317-.084-2.54-.598-3.457-1.037a19.687 19.687 0 01-6.542-5.123c-1.512-1.822-2.522-3.506-3.191-5.314-.413-1.104-.563-1.964-.497-2.775.045-.519.244-.949.612-1.316l1.511-1.512c.217-.204.448-.314.674-.314.28 0 .505.168.647.31l.013.013c.27.253.528.514.798.793.137.142.28.284.421.43l1.21 1.21c.47.47.47.905 0 1.374-.128.129-.252.257-.381.382a23.13 23.13 0 01-1.113 1.081c-.008.009-.017.013-.022.022-.38.381-.31.754-.23 1.006l.013.04c.315.762.758 1.48 1.432 2.336l.004.004c1.223 1.507 2.513 2.682 3.936 3.582.182.115.368.208.545.296.16.08.31.156.439.235.018.01.035.023.053.031a.96.96 0 00.439.111c.368 0 .598-.23.674-.306l1.515-1.515c.151-.151.39-.333.67-.333.274 0 .5.173.638.324l.009.009 2.442 2.442c.456.452.456.917.004 1.387zm-6.834-12.68a5.62 5.62 0 013.058 1.586 5.65 5.65 0 011.587 3.059.595.595 0 00.59.496c.035 0 .066-.005.101-.009a.599.599 0 00.492-.691 6.836 6.836 0 00-1.919-3.701 6.836 6.836 0 00-3.7-1.92.601.601 0 00-.692.488.592.592 0 00.483.692zm9.627 4.268a11.246 11.246 0 00-3.16-6.095A11.247 11.247 0 0011.72.01a.596.596 0 00-.687.488.601.601 0 00.492.691 10.07 10.07 0 015.447 2.823 10.042 10.042 0 012.824 5.448.595.595 0 00.59.496.587.587 0 00.59-.691z" fill="#FCD127"/></svg>