<svg width="24" height="25" viewBox="0 0 24 25" fill="none" xmlns="http://www.w3.org/2000/svg">
<path d="M12 2C6.20156 2 1.5 6.70156 1.5 12.5C1.5 18.2984 6.20156 23 12 23C17.7984 23 22.5 18.2984 22.5 12.5C22.5 6.70156 17.7984 2 12 2ZM17.0461 9.91484C17.0531 10.025 17.0531 10.1398 17.0531 10.2523C17.0531 13.693 14.4328 17.6562 9.64453 17.6562C8.16797 17.6562 6.79922 17.2273 5.64609 16.4891C5.85703 16.5125 6.05859 16.5219 6.27422 16.5219C7.49297 16.5219 8.61328 16.1094 9.50625 15.4109C8.3625 15.3875 7.40156 14.6375 7.07344 13.6063C7.47422 13.6648 7.83516 13.6648 8.24766 13.5594C7.65873 13.4397 7.12939 13.1199 6.74957 12.6542C6.36974 12.1885 6.16286 11.6056 6.16406 11.0047V10.9719C6.50859 11.1664 6.91406 11.2859 7.33828 11.3023C6.98166 11.0647 6.6892 10.7427 6.48682 10.3649C6.28445 9.98715 6.17841 9.56528 6.17813 9.13672C6.17813 8.65156 6.30469 8.20859 6.53203 7.82422C7.18571 8.62891 8.0014 9.28705 8.92609 9.75586C9.85078 10.2247 10.8638 10.4936 11.8992 10.5453C11.5312 8.77578 12.8531 7.34375 14.4422 7.34375C15.1922 7.34375 15.8672 7.65781 16.343 8.16406C16.9312 8.05391 17.4937 7.83359 17.9953 7.53828C17.8008 8.14062 17.393 8.64922 16.8516 8.97031C17.3766 8.91406 17.8828 8.76875 18.3516 8.56484C17.9977 9.08516 17.5547 9.54688 17.0461 9.91484Z" fill="#D3D3D3"/>
</svg>
