<svg width="133" height="77" fill="none" xmlns="http://www.w3.org/2000/svg"><path fill="#2D2D2D" d="M0 0h132.904v77H0z"/><path d="M5.643 56.061l-.438 1.642 11.478-.01c.408 0 .612.152.612.458a.94.94 0 01-.04.255l-.286 1.02c-.123.476-.436.714-.939.714H4.807c-1.49 0-2.235-.578-2.235-1.734 0-.299.051-.639.153-1.02l1.368-5.098c.49-1.835 1.673-2.753 3.55-2.753h11.244c.401 0 .602.15.602.449 0 .075-.014.16-.04.255l-.287 1.03c-.129.475-.445.713-.948.713H6.724l-.439 1.632h11.489c.408 0 .612.153.612.459a.99.99 0 01-.04.255l-.266 1.02c-.13.475-.45.713-.96.713H5.644zm16.417-4.089l-.449 1.642h9.683l.449-1.632-9.683-.01zm-1.092 4.089l-.449 1.631h9.683l.449-1.631h-9.683zm-1-5.812c.123-.476.442-.714.96-.714H32.14c1.482 0 2.224.578 2.224 1.734 0 .299-.051.639-.153 1.02l-.133.51c-.3 1.093-.748 1.773-1.347 2.038.28.163.419.476.419.938 0 .306-.058.673-.174 1.102l-.143.51c-.49 1.835-1.67 2.753-3.54 2.753H18.08c-.408-.007-.612-.164-.612-.47 0-.074.01-.156.03-.244l2.47-9.177zm17.396 1.723l-.724 2.661h9.683l.724-2.65-9.683-.01zm-2.091-1.723c.13-.476.445-.714.949-.714h11.223c1.483 0 2.224.578 2.224 1.734 0 .299-.05.639-.153 1.02l-.561 2.038c-.49 1.836-1.67 2.754-3.54 2.754h-9.428l-.633 2.345c-.122.476-.438.714-.948.714h-1.02c-.409 0-.613-.157-.613-.47 0-.068.01-.149.03-.244l2.47-9.177zm17.396 1.723l-1.53 5.72 9.682.01 1.54-5.72-9.692-.01zm10.08-2.437c1.483 0 2.225.578 2.225 1.734 0 .299-.051.639-.154 1.02l-1.367 5.097c-.49 1.836-1.67 2.754-3.54 2.754H50.73c-1.483 0-2.224-.578-2.224-1.734 0-.299.051-.639.153-1.02l1.367-5.098c.49-1.835 1.673-2.753 3.55-2.753h9.173zm4.071 6.699l-.857 3.192c-.122.476-.438.714-.949.714h-1.02c-.408 0-.612-.157-.612-.47 0-.068.01-.149.03-.244l2.46-9.167c.135-.476.455-.714.959-.714h1.02c.408 0 .612.153.612.46a.982.982 0 01-.04.254l-.848 3.181c-.04.034-.06.062-.06.082v.01c0 .007.002.01.01.01.06 0 .207-.05.438-.153l8.489-3.854h5l-11.5 5.302 8.663 5.303h-5l-6.427-3.855c-.177-.102-.296-.153-.358-.153-.013 0-.023.007-.03.02 0 .021.007.048.02.082z" fill="#fff"/><path d="M83.278 51.972l-.725 2.661h9.683l.724-2.65-9.682-.01zm-2.092-1.723c.13-.476.446-.714.949-.714h11.223c1.483 0 2.224.578 2.224 1.734 0 .299-.05.639-.153 1.02l-.56 2.038c-.49 1.836-1.67 2.754-3.541 2.754H81.9l-.632 2.345c-.123.476-.44.714-.95.714h-1.02c-.408 0-.612-.157-.612-.47 0-.068.01-.149.03-.244l2.47-9.177zM98.46 58.1l-1.918 2.04h-2.878l8.479-8.963c1.013-1.095 1.996-1.642 2.949-1.642.952 0 1.649.547 2.091 1.642l3.663 8.963h-2.877l-.837-2.04H98.46zm7.672-2.447l-1.612-3.956-3.734 3.956h5.346zm8.703.408l-.908 3.365c-.122.476-.438.714-.949.714h-1.02c-.408 0-.612-.157-.612-.47 0-.068.01-.149.031-.244l2.509-9.381h.011c.088-.34.387-.51.898-.51h1.02c.408 0 .612.157.612.47 0 .067-.01.149-.031.244l-.908 3.365h9.693l.959-3.569h.01c.089-.34.388-.51.898-.51h1.021c.408 0 .612.157.612.47 0 .067-.01.149-.031.244l-2.469 9.177c-.122.476-.439.714-.949.714h-1.02c-.408 0-.612-.157-.612-.47 0-.068.01-.149.03-.244l.908-3.365h-9.703z" fill="#fff"/><path fill-rule="evenodd" clip-rule="evenodd" d="M90.233 23.246c0 9.05-10.915 16.387-24.379 16.387-13.463 0-24.378-7.336-24.378-16.387 0-9.05 10.915-16.387 24.378-16.387 13.464 0 24.379 7.337 24.379 16.387zm-9.961 10.209h-4.203l-10-5.995c-.274-.159-.46-.238-.555-.238-.021 0-.037.01-.047.032 0 .032.01.074.031.127l-1.333 4.964c-.19.74-.682 1.11-1.476 1.11h-1.587c-.635 0-.952-.243-.952-.73 0-.105.016-.232.047-.38l1.057-3.939H45.769c.997 1.521 2.446 2.955 4.332 4.223 3.916 2.632 9.478 4.347 15.753 4.347 5.593 0 10.618-1.362 14.418-3.521zm-29.47-20.042c3.867-2.376 9.143-3.896 15.052-3.896 6.276 0 11.838 1.714 15.754 4.347 1.414.95 2.582 1.994 3.498 3.098h-4.625l-13.205 5.994c-.36.159-.587.238-.682.238-.011 0-.016-.005-.016-.016v-.016c0-.031.031-.074.095-.127l1.317-4.947c.042-.148.064-.28.064-.397 0-.476-.318-.713-.953-.713h-1.587c-.783 0-1.28.37-1.492 1.11l-.293 1.092H47.71l.62-2.307h16.247c.711 0 1.159-.337 1.341-1.01l.404-1.455c.039-.135.058-.255.058-.36 0-.424-.284-.635-.851-.635H50.803zm35.11 4.63L70.37 25.208l11.654 7.133c3.66-2.598 5.548-5.845 5.548-9.095 0-1.77-.56-3.539-1.661-5.203zM46.8 22.64l-.62 2.32 16.002-.013.62-2.307H46.8z" fill="#fff"/></svg>